<svg xmlns="http://www.w3.org/2000/svg" viewBox="0 0 512 512" aria-hidden="true" focusable="false"><g transform="matrix(1.14583333 0 0 1.14583333 -37.33333333 -110.66666667)"><path d="M299 379V335Q345 321 375.0 281.5Q405 242 405.0 192.0Q405 142 375.0 102.5Q345 63 299 49V5Q341 15 375.0 42.0Q409 69 428.5 108.0Q448 147 448.0 192.0Q448 237 428.5 276.0Q409 315 375.0 342.0Q341 369 299 379ZM352 192Q352 220 337.5 243.0Q323 266 299 278V107Q323 118 337.5 141.0Q352 164 352 192ZM64 256V128H149L256 21V363L149 256Z" transform="translate(0 512) scale(1 -1)"/></g></svg>
